PathFileType	4	(X/Y/Z)	/Users/itak/Documents/Research/Walk-IL/dataset/trc/00403_00012.trc
DataRate	CameraRate	NumFrames	NumMarkers	Units	OrigDataRate	OrigDataStartFrame	OrigNumFrames
100.000000	100.000000	4	53	mm	100.000000	283	566
Frame#	Time	RPSI			LPSI			L3			STRN			T10			C7			CLAV			RBAK			LBAK			LSHO			LUPA			LAEL			LAOL			LWTS			LWPS			LFRA			LHPS			LHTS			RSHO			RUPA			RAEL			RAOL			RWTS			RWPS			RFRA			RIFD			RHTS			RHPS			RBHD			LFHD			RFHD			LBHD			LHIP			RHIP			RASI			LASI			LKNE			LTHI			LANK			LTIP			LTOE			LMT1			LMT5			LHEE			RKNE			RTHI			RANK			RTIP			RTOE			RMT1			RMT5			RHEE			LIFD			
		X1	Y1	Z1	X2	Y2	Z2	X3	Y3	Z3	X4	Y4	Z4	X5	Y5	Z5	X6	Y6	Z6	X7	Y7	Z7	X8	Y8	Z8	X9	Y9	Z9	X10	Y10	Z10	X11	Y11	Z11	X12	Y12	Z12	X13	Y13	Z13	X14	Y14	Z14	X15	Y15	Z15	X16	Y16	Z16	X17	Y17	Z17	X18	Y18	Z18	X19	Y19	Z19	X20	Y20	Z20	X21	Y21	Z21	X22	Y22	Z22	X23	Y23	Z23	X24	Y24	Z24	X25	Y25	Z25	X26	Y26	Z26	X27	Y27	Z27	X28	Y28	Z28	X29	Y29	Z29	X30	Y30	Z30	X31	Y31	Z31	X32	Y32	Z32	X33	Y33	Z33	X34	Y34	Z34	X35	Y35	Z35	X36	Y36	Z36	X37	Y37	Z37	X38	Y38	Z38	X39	Y39	Z39	X40	Y40	Z40	X41	Y41	Z41	X42	Y42	Z42	X43	Y43	Z43	X44	Y44	Z44	X45	Y45	Z45	X46	Y46	Z46	X47	Y47	Z47	X48	Y48	Z48	X49	Y49	Z49	X50	Y50	Z50	X51	Y51	Z51	X52	Y52	Z52	X53	Y53	Z53	

284	2.83	-458.6711120605469	967.77685546875	-355.7997131347656	-531.6773071289062	973.4494018554688	-465.7748413085938	-489.0132446289062	1054.4140625	-407.928955078125	-279.5357971191406	1207.3427734375	-524.787109375	-497.5763854980469	1155.539306640625	-413.0236511230469	-461.1709899902344	1404.308837890625	-431.1415710449219	-323.4002075195312	1327.3583984375	-496.2639465332031	-477.8652648925781	1257.623901367188	-359.4393005371094	-523.0078125	1373.8916015625	-516.0498046875	-469.0798645019531	1392.943725585938	-597.7952270507812	-530.9766235351562	1284.947021484375	-655.4481201171875	-539.9967041015625	1095.171020507812	-710.3133544921875	-550.6272583007812	1062.59814453125	-631.28271484375	-446.3471984863281	886.9100341796875	-768.8607788085938	-525.7384033203125	881.5689086914062	-789.7594604492188	-537.051025390625	996.18603515625	-744.4813842773438	-514.812744140625	801.4357299804688	-813.6988525390625	-451.0890808105469	798.881103515625	-817.59619140625	-347.4635314941406	1376.916015625	-314.4365539550781	-346.1380004882812	1315.183227539062	-257.080078125	-371.7847290039062	1056.984741210938	-208.2115325927734	-413.4199829101562	1050.827514648438	-293.3741149902344	-285.4431762695312	827.9660034179688	-259.1378173828125	-310.5185852050781	823.8851318359375	-188.6737365722656	-351.5191345214844	990.4345703125	-194.8765563964844	-304.4551696777344	654.351806640625	-238.6351470947266	-275.4522399902344	721.6429443359375	-236.8810882568359	-316.6396484375	736.22021484375	-183.1510162353516	-388.3515930175781	1585.089721679688	-364.6085510253906	-292.0735473632812	1594.224975585938	-539.6116333007812	-266.8638610839844	1589.0595703125	-419.739501953125	-439.8651733398438	1591.71142578125	-518.6347045898438	-520.7373046875	972.53857421875	-609.0203857421875	-328.0532836914062	942.2550659179688	-306.6219482421875	-250.5648956298828	959.33935546875	-426.667724609375	-402.686767578125	966.9876708984375	-640.901611328125	-464.0292663574219	477.1617431640625	-653.4679565429688	-479.9020385742188	620.7446899414062	-649.982666015625	-567.8212280273438	42.60977935791016	-584.8276977539062	-519.99462890625	246.7521362304688	-631.2994995117188	-348.3890380859375	41.35794830322266	-634.4791870117188	-403.4541625976562	41.52716064453125	-568.346923828125	-462.9342956542969	39.29243469238281	-657.2928466796875	-572.9567260742188	38.51867294311523	-517.5127563476562	-188.4190368652344	492.9055786132812	-471.7772216796875	-222.3432769775391	735.4340209960938	-395.4372253417969	-413.7879028320312	130.9701843261719	-390.2760009765625	-230.006591796875	373.1784973144531	-467.2738037109375	-330.7126159667969	49.65259552001953	-535.0394287109375	-395.2536010742188	88.41011047363281	-519.482666015625	-357.9984130859375	76.14571380615234	-427.1123657226562	-497.426025390625	162.5177917480469	-399.4156494140625	-462.8759155273438	713.0635986328125	-816.6160278320312	
285	2.84	-452.3616638183594	967.6678466796875	-361.6320495605469	-524.4193725585938	973.56689453125	-472.0933532714844	-482.2442321777344	1054.506591796875	-414.2121887207031	-271.9549560546875	1207.32177734375	-529.4310913085938	-491.7976989746094	1155.669311523438	-419.8123168945312	-454.283447265625	1404.348388671875	-438.1054077148438	-315.9752807617188	1327.389892578125	-501.438720703125	-472.2678527832031	1257.931640625	-366.5211791992188	-515.21533203125	1373.926391601562	-523.6365966796875	-460.37890625	1393.094848632812	-604.6881713867188	-521.5277099609375	1285.141479492188	-663.24951171875	-528.8626098632812	1095.936889648438	-719.7369995117188	-539.6104736328125	1062.4423828125	-641.0948486328125	-430.149658203125	892.0711059570312	-782.630615234375	-509.3753662109375	884.7330322265625	-803.7589721679688	-523.954345703125	997.8944091796875	-755.7406005859375	-495.9763793945312	805.6243896484375	-829.7050170898438	-432.2485656738281	805.3272705078125	-833.7421264648438	-342.2106628417969	1377.095336914062	-319.9893798828125	-342.1748352050781	1315.95068359375	-262.5275573730469	-371.9866943359375	1058.429931640625	-212.6048431396484	-411.2967834472656	1052.067016601562	-298.9381713867188	-286.6426696777344	828.1702270507812	-258.8768920898438	-314.2823486328125	824.7107543945312	-189.2728271484375	-352.9446411132812	991.8211059570312	-198.1582489013672	-307.068603515625	654.8042602539062	-237.8347930908203	-277.885986328125	722.0528564453125	-235.5108947753906	-320.8810119628906	737.196533203125	-183.3734893798828	-381.7689208984375	1585.244018554688	-371.1605834960938	-283.2959899902344	1593.651977539062	-544.9448852539062	-259.5731506347656	1588.644775390625	-424.7564086914062	-431.4556884765625	1591.724975585938	-525.8059692382812	-512.6310424804688	972.5189208984375	-615.248779296875	-321.9371032714844	942.6525268554688	-311.8001403808594	-244.0436553955078	959.7809448242188	-431.2601928710938	-394.5343017578125	966.6211547851562	-646.6376342773438	-463.2566223144531	476.7224731445312	-655.6484985351562	-476.4886169433594	620.6824951171875	-653.3160400390625	-567.7823486328125	42.68394088745117	-584.7525634765625	-519.8146362304688	246.6199340820312	-632.1432495117188	-348.5094909667969	41.43502044677734	-634.6438598632812	-403.4546508789062	41.63420104980469	-568.4741821289062	-462.97314453125	39.26128005981445	-657.3170166015625	-572.9575805664062	38.71758651733398	-517.4396362304688	-176.0634460449219	495.5108337402344	-477.5946350097656	-213.8132934570312	737.4823608398438	-399.3746948242188	-390.0671081542969	124.0385971069336	-410.7694091796875	-213.9282989501953	374.1534423828125	-476.5867919921875	-297.1737976074219	50.06873321533203	-553.6851806640625	-364.4932556152344	84.80023193359375	-539.9337158203125	-329.7048034667969	73.37056732177734	-446.4730224609375	-474.9160461425781	151.2333831787109	-421.9019775390625	-441.2343139648438	719.233154296875	-835.0926513671875	
286	2.85	-446.0039672851562	967.3013916015625	-367.5048522949219	-517.1358642578125	973.4827270507812	-478.4385986328125	-475.5748596191406	1054.28369140625	-420.5223999023438	-264.292236328125	1206.93505859375	-533.990234375	-485.839599609375	1155.500244140625	-426.5354614257812	-447.2644958496094	1404.099487304688	-444.9877319335938	-308.462158203125	1327.04931640625	-506.5548706054688	-466.4989929199219	1257.948120117188	-373.5042419433594	-507.3589782714844	1373.66845703125	-531.1265258789062	-451.5885009765625	1392.882202148438	-611.5115356445312	-512.0497436523438	1284.96484375	-670.89794921875	-517.8914794921875	1096.318603515625	-728.8142700195312	-528.7210083007812	1061.956665039062	-650.5409545898438	-414.0286865234375	897.3055419921875	-795.9395141601562	-492.9849243164062	887.75439453125	-817.2874145507812	-510.9659423828125	999.3289794921875	-766.5855102539062	-476.906005859375	809.7694091796875	-845.1193237304688	-413.2413940429688	812.0289916992188	-849.4056396484375	-336.8053894042969	1376.989501953125	-325.5107727050781	-338.0327453613281	1316.398315429688	-267.9593505859375	-371.8309020996094	1059.582885742188	-217.1544952392578	-408.8233032226562	1052.955688476562	-304.5419311523438	-287.603515625	828.140380859375	-258.7821044921875	-317.6750183105469	825.3851318359375	-190.1382598876953	-354.0347290039062	992.9551391601562	-201.6482849121094	-309.7802124023438	655.08251953125	-237.1853179931641	-280.3352355957031	722.2050170898438	-234.3690795898438	-324.9301452636719	738.0194702148438	-183.8331604003906	-375.1401977539062	1585.065673828125	-377.5935668945312	-274.549072265625	1592.85791015625	-550.164794921875	-252.2808685302734	1587.994873046875	-429.680908203125	-423.0290222167969	1591.41650390625	-532.8192749023438	-504.4461669921875	972.285400390625	-621.4935302734375	-315.8681945800781	942.6536865234375	-316.9609985351562	-237.3897705078125	959.827392578125	-435.7821655273438	-386.2526550292969	965.992919921875	-652.2621459960938	-462.2996826171875	476.2242431640625	-657.8712768554688	-472.9855651855469	620.4902954101562	-656.6705932617188	-567.7128295898438	42.76123809814453	-584.6600341796875	-519.5462036132812	246.44970703125	-633.011962890625	-348.6055603027344	41.4926872253418	-634.8035278320312	-403.4625549316406	41.66769790649414	-568.572998046875	-463.0011596679688	39.23340225219727	-657.3248901367188	-573.0092163085938	38.9205207824707	-517.3468017578125	-164.1608276367188	497.4990539550781	-483.1340942382812	-205.5189361572266	738.9835815429688	-403.1383361816406	-365.3289184570312	116.8170928955078	-431.0426940917969	-197.9727325439453	374.6686096191406	-485.6506958007812	-263.5818176269531	50.66667175292969	-571.9931640625	-333.2764587402344	81.37425231933594	-560.014892578125	-300.8752136230469	70.4483642578125	-465.6060791015625	-451.0690002441406	139.7246704101562	-444.0736999511719	-419.089111328125	725.7794799804688	-853.0183715820312	
287	2.86	-439.5813598632812	966.6749877929688	-373.4101867675781	-509.8162841796875	973.177734375	-484.8006896972656	-468.9690551757812	1053.753051757812	-426.8400268554688	-256.5387878417969	1206.18896484375	-538.464111328125	-479.66845703125	1155.04736328125	-433.1537170410156	-440.1095275878906	1403.569091796875	-451.7953186035156	-300.8482360839844	1326.346435546875	-511.6143493652344	-460.5462951660156	1257.678466796875	-380.3903198242188	-499.426025390625	1373.122192382812	-538.5259399414062	-442.6938171386719	1392.306640625	-618.2723388671875	-502.5048522949219	1284.404296875	-678.4041137695312	-507.0407409667969	1096.305908203125	-737.572265625	-517.9390869140625	1061.1181640625	-659.6566772460938	-398.0030822753906	902.58740234375	-808.7623291015625	-476.5865783691406	890.636962890625	-830.3331298828125	-498.0595092773438	1000.485595703125	-777.0265502929688	-457.6604309082031	813.887939453125	-859.939453125	-394.1513671875	818.9562377929688	-864.536865234375	-331.241455078125	1376.602172851562	-331.0001831054688	-333.7029113769531	1316.519653320312	-273.3755798339844	-371.3013305664062	1060.42919921875	-221.8680267333984	-405.969482421875	1053.485107421875	-310.1925964355469	-288.3258361816406	827.8590698242188	-258.8783874511719	-320.675048828125	825.8986206054688	-191.2754974365234	-354.7602844238281	993.822265625	-205.348388671875	-312.5667724609375	655.1826171875	-236.6990661621094	-282.7882080078125	722.0919189453125	-233.4701538085938	-328.7615661621094	738.685546875	-184.5289001464844	-368.4637451171875	1584.558227539062	-383.909912109375	-265.8339538574219	1591.855712890625	-555.2767333984375	-244.9851837158203	1587.122314453125	-434.518310546875	-414.5804138183594	1590.787963867188	-539.6779174804688	-496.1910400390625	971.8185424804688	-627.745849609375	-309.8132934570312	942.2587890625	-322.1034240722656	-230.5946044921875	959.489990234375	-440.2477416992188	-377.8526000976562	965.1033325195312	-657.7811889648438	-461.1058654785156	475.6516723632812	-660.1281127929688	-469.3453369140625	620.1529541015625	-660.0487060546875	-567.6071166992188	42.84674835205078	-584.5421142578125	-519.1646118164062	246.2348022460938	-633.8975219726562	-348.6701049804688	41.52621459960938	-634.9573364257812	-403.4709167480469	41.61807632446289	-568.6337280273438	-463.0176086425781	39.2125358581543	-657.30859375	-573.0865478515625	39.11611175537109	-517.2243041992188	-152.7151336669922	498.8529052734375	-488.4277954101562	-197.4501342773438	739.9208984375	-406.7623901367188	-339.555419921875	109.4406585693359	-451.0254516601562	-182.1406097412109	374.7610473632812	-494.4746704101562	-230.0101318359375	51.51460647583008	-590.0013427734375	-301.6898803710938	78.22792053222656	-579.7039794921875	-271.5025939941406	67.47449493408203	-484.5039672851562	-425.9081115722656	128.1484680175781	-465.8262329101562	-396.5923156738281	732.7020874023438	-870.35009765625	
